<svg width="30" height="30" viewBox="0 0 30 30" fill="none" xmlns="http://www.w3.org/2000/svg">
<circle cx="15" cy="15" r="15" fill="#111111"/>
<path d="M18.5355 19.9498L15 16.4143L11.4645 19.9498C11.2769 20.1374 11.0226 20.2427 10.7574 20.2427C10.4921 20.2427 10.2378 20.1374 10.0503 19.9498C9.86272 19.7623 9.75736 19.5079 9.75736 19.2427C9.75736 18.9775 9.86272 18.7232 10.0503 18.5356L13.5858 15.0001L10.0503 11.4645C9.86272 11.277 9.75736 11.0227 9.75736 10.7574C9.75736 10.4922 9.86272 10.2379 10.0503 10.0503C10.2378 9.8628 10.4921 9.75744 10.7574 9.75744C11.0226 9.75744 11.2769 9.8628 11.4645 10.0503L15 13.5859L18.5355 10.0503C18.7231 9.8628 18.9774 9.75744 19.2426 9.75744C19.5079 9.75744 19.7622 9.8628 19.9497 10.0503C20.1373 10.2379 20.2426 10.4922 20.2426 10.7574C20.2426 11.0227 20.1373 11.277 19.9497 11.4645L16.4142 15.0001L19.9497 18.5356C20.1373 18.7232 20.2426 18.9775 20.2426 19.2427C20.2426 19.5079 20.1373 19.7623 19.9497 19.9498C19.7622 20.1374 19.5079 20.2427 19.2426 20.2427C18.9774 20.2427 18.7231 20.1374 18.5355 19.9498Z" fill="white"/>
</svg>
