<svg width="29" height="29" viewBox="0 0 29 29" fill="none" xmlns="http://www.w3.org/2000/svg">
<path d="M21.8333 2.14123L6.19423 2.24573C5.06796 2.25326 4.16058 3.17284 4.16811 4.29912L4.17265 4.9788C4.18018 6.10508 5.09976 7.01245 6.22604 7.00493L21.8658 6.90042C22.9921 6.89289 23.9116 7.80027 23.9192 8.92654L23.9101 7.56647C23.9026 6.4402 22.983 5.53282 21.8567 5.54035L6.21695 5.64486C5.84176 5.64736 5.53523 5.3449 5.53272 4.96971L5.52818 4.29003C5.52567 3.91484 5.82813 3.60831 6.20332 3.6058L21.8431 3.50129C22.97 3.49376 23.8889 4.40114 23.8965 5.52742L23.8874 4.16735C23.8798 3.04037 22.9596 2.1337 21.8333 2.14123Z" fill="#7E8089"/>
<path d="M21.865 6.9012L6.22599 7.0057C5.09972 7.01323 4.18013 6.10585 4.17261 4.97958L4.20162 9.32088C4.2219 9.31794 4.24004 9.30872 4.26174 9.30858L5.56161 9.29989C5.8514 9.29795 6.08817 9.53158 6.0901 9.82137C6.09204 10.1112 5.85842 10.3479 5.56862 10.3499L4.26875 10.3586C4.24775 10.3587 4.22949 10.349 4.20847 10.3471L4.23174 13.8288C4.25202 13.8258 4.27016 13.8166 4.29186 13.8165L5.59173 13.8078C5.88152 13.8059 6.11829 14.0395 6.12023 14.3293C6.12216 14.6191 5.88854 14.8558 5.59875 14.8578L4.29887 14.8665C4.27787 14.8666 4.25961 14.8569 4.2386 14.855L4.26186 18.336C4.28214 18.333 4.30028 18.3238 4.32198 18.3237L5.62185 18.315C5.91164 18.3131 6.14841 18.5467 6.15034 18.8365C6.15228 19.1263 5.91866 19.363 5.62886 19.365L4.32899 19.3737C4.30799 19.3738 4.28973 19.3641 4.26871 19.3622L4.29197 22.8432C4.31226 22.8402 4.33039 22.831 4.35209 22.8309L5.65196 22.8222C5.94176 22.8203 6.17852 23.0539 6.18046 23.3437C6.1824 23.6335 5.94877 23.8702 5.65898 23.8722L4.35911 23.8809C4.33811 23.881 4.31985 23.8713 4.29883 23.8694L4.29984 24.0206C4.30737 25.1468 5.22695 26.0542 6.35323 26.0467L21.993 25.9422C23.1193 25.9346 24.0266 25.0151 24.0191 23.8888L23.9191 8.92732C23.9116 7.80034 22.9913 6.89367 21.865 6.9012Z" fill="#A8A9B2"/>
<path d="M21.8423 3.50063L6.20325 3.60513C5.82806 3.60764 5.5256 3.91416 5.52811 4.28936L5.53265 4.96904C5.53516 5.34493 5.84168 5.64669 6.21687 5.64418L21.8566 5.53968C22.9836 5.53215 23.9025 6.43953 23.91 7.5658L23.8964 5.52605C23.8889 4.39977 22.9693 3.4924 21.843 3.49992L21.8423 3.50063Z" fill="white"/>
<path d="M3.73957 9.83615C3.73777 9.56735 3.94145 9.35319 4.20093 9.31995L4.20077 9.29545C3.73926 9.26563 3.36786 8.89291 3.36472 8.42322C3.36158 7.95353 3.72796 7.57517 4.18904 7.53989L4.18198 6.48361C3.14062 6.52347 2.30773 7.38096 2.31474 8.43024C2.32175 9.47951 3.16603 10.3258 4.20782 10.3517L4.20778 10.3454C3.94718 10.3164 3.74136 10.1049 3.73957 9.83615Z" fill="#6C7784"/>
<path d="M3.76966 14.3437C3.76787 14.0749 3.97154 13.8607 4.23102 13.8275L4.23086 13.803C3.76935 13.7732 3.39795 13.3997 3.39481 12.9301C3.39167 12.4604 3.75805 12.082 4.21913 12.0467L4.21207 10.9905C3.17071 11.0303 2.33782 11.8878 2.34483 12.9371C2.35184 13.9863 3.19612 14.8333 4.23792 14.8593L4.23788 14.853C3.97728 14.8239 3.77146 14.6125 3.76966 14.3437Z" fill="#6C7784"/>
<path d="M3.79975 18.85C3.79796 18.5812 4.00163 18.3671 4.26112 18.3338L4.26095 18.3093C3.79944 18.2795 3.42804 17.9061 3.4249 17.4364C3.42176 16.9667 3.78814 16.5884 4.24922 16.5531L4.24216 15.4968C3.2008 15.5367 2.36791 16.3941 2.37492 17.4434C2.38193 18.4927 3.22621 19.3397 4.26801 19.3656L4.26797 19.3593C4.00737 19.3303 3.80155 19.1188 3.79975 18.85Z" fill="#6C7784"/>
<path d="M3.82984 23.3578C3.82805 23.089 4.03172 22.8749 4.29121 22.8416L4.29104 22.8171C3.82953 22.7873 3.45813 22.4139 3.45499 21.9442C3.45185 21.4745 3.81823 21.0962 4.27931 21.0609L4.27225 20.0046C3.23089 20.0445 2.398 20.902 2.40501 21.9512C2.41202 23.0005 3.2563 23.8475 4.2981 23.8734L4.29806 23.8671C4.03746 23.8381 3.83164 23.6266 3.82984 23.3578Z" fill="#6C7784"/>
<path d="M3.82992 23.3571C3.83172 23.6259 4.03824 23.8373 4.29814 23.8671C4.31846 23.8697 4.33672 23.8787 4.35842 23.8786L5.65829 23.8699C5.94808 23.868 6.18171 23.6312 6.17977 23.3414C6.17784 23.0516 5.94107 22.818 5.65128 22.8199L4.3514 22.8286C4.3304 22.8287 4.31227 22.8387 4.29129 22.8409C4.0311 22.8734 3.82813 23.0883 3.82992 23.3571Z" fill="#6C7784"/>
<path d="M3.79983 18.8503C3.80163 19.1191 4.00815 19.3305 4.26805 19.3603C4.28837 19.3629 4.30663 19.3719 4.32833 19.3717L5.6282 19.3631C5.91799 19.3611 6.15162 19.1244 6.14968 18.8346C6.14774 18.5448 5.91098 18.3111 5.62118 18.3131L4.32131 18.3218C4.30031 18.3219 4.28218 18.3318 4.26119 18.3341C4.00101 18.3666 3.79804 18.5815 3.79983 18.8503Z" fill="#6C7784"/>
<path d="M3.76962 14.3439C3.77142 14.6127 3.97793 14.8241 4.23784 14.8539C4.25816 14.8566 4.27642 14.8655 4.29812 14.8654L5.59799 14.8567C5.88778 14.8548 6.12141 14.618 6.11947 14.3282C6.11753 14.0384 5.88077 13.8048 5.59097 13.8067L4.2911 13.8154C4.2701 13.8156 4.25197 13.8255 4.23098 13.8277C3.97079 13.8603 3.76783 14.0751 3.76962 14.3439Z" fill="#6C7784"/>
<path d="M3.73953 9.83513C3.74133 10.1039 3.94784 10.3154 4.20775 10.3451C4.22807 10.3478 4.24633 10.3568 4.26803 10.3566L5.5679 10.3479C5.85769 10.346 6.09132 10.1092 6.08938 9.81943C6.08744 9.52964 5.85068 9.29601 5.56088 9.29795L4.26101 9.30664C4.24001 9.30678 4.22188 9.3167 4.20089 9.31894C3.9407 9.35148 3.73773 9.56634 3.73953 9.83513Z" fill="#6C7784"/>
<circle cx="14.5834" cy="15.7491" r="4.66667" stroke="white" stroke-width="1.16667"/>
<rect x="14" y="11.6661" width="1.16667" height="8.16667" fill="white"/>
<rect x="14.3405" y="16.1505" width="1.16667" height="4.71331" transform="rotate(-52.0467 14.3405 16.1505)" fill="white"/>
</svg>
