<svg width="32" height="32" viewBox="0 0 32 32" fill="none" xmlns="http://www.w3.org/2000/svg">
<path d="M27.4137 14.1618L17.4137 4.5619C17.0387 4.20211 16.5302 4 16 4C15.4698 4 14.9613 4.20211 14.5863 4.5619L4.58626 14.1618C4.39964 14.3396 4.25171 14.5513 4.15107 14.7845C4.05042 15.0177 3.99908 15.2677 4.00001 15.5202V27.04C4.00001 27.2946 4.10537 27.5388 4.29291 27.7188C4.48044 27.8989 4.7348 28 5.00001 28H13C13.2652 28 13.5196 27.8989 13.7071 27.7188C13.8946 27.5388 14 27.2946 14 27.04V20.3201H18V27.04C18 27.2946 18.1054 27.5388 18.2929 27.7188C18.4804 27.8989 18.7348 28 19 28H27C27.2652 28 27.5196 27.8989 27.7071 27.7188C27.8946 27.5388 28 27.2946 28 27.04V15.5202C28.0009 15.2677 27.9496 15.0177 27.8489 14.7845C27.7483 14.5513 27.6004 14.3396 27.4137 14.1618ZM26 26.08H20V19.3601C20 19.1055 19.8946 18.8613 19.7071 18.6813C19.5196 18.5013 19.2652 18.4001 19 18.4001H13C12.7348 18.4001 12.4804 18.5013 12.2929 18.6813C12.1054 18.8613 12 19.1055 12 19.3601V26.08H6.00001V15.5202L16 5.92029L26 15.5202V26.08Z" fill="#222222"/>
</svg>
