<svg width="167" height="44" viewBox="0 0 167 44" fill="none" xmlns="http://www.w3.org/2000/svg">
<path d="M34.742 19.414C34.142 19.414 33.548 19.33 32.96 19.162C32.372 18.994 31.844 18.724 31.376 18.352C30.908 17.98 30.524 17.506 30.224 16.93C29.936 16.342 29.792 15.634 29.792 14.806V9.082C29.792 8.35 29.924 7.702 30.188 7.138C30.452 6.562 30.806 6.088 31.25 5.716C31.706 5.332 32.24 5.044 32.852 4.852C33.464 4.648 34.112 4.546 34.796 4.546C35.552 4.546 36.254 4.63 36.902 4.798C37.562 4.954 38.102 5.212 38.522 5.572C38.666 5.692 38.78 5.842 38.864 6.022C38.948 6.202 38.996 6.388 39.008 6.58C39.032 6.772 39.02 6.97 38.972 7.174C38.924 7.366 38.834 7.54 38.702 7.696C38.486 7.96 38.228 8.122 37.928 8.182C37.64 8.242 37.352 8.242 37.064 8.182C36.884 8.146 36.728 8.098 36.596 8.038C36.464 7.966 36.32 7.912 36.164 7.876C36.008 7.84 35.834 7.81 35.642 7.786C35.45 7.75 35.198 7.732 34.886 7.732C34.682 7.732 34.478 7.768 34.274 7.84C34.07 7.9 33.89 7.996 33.734 8.128C33.578 8.248 33.452 8.404 33.356 8.596C33.26 8.776 33.212 8.986 33.212 9.226V10.072C33.344 9.964 33.506 9.868 33.698 9.784C33.902 9.7 34.118 9.634 34.346 9.586C34.574 9.526 34.808 9.484 35.048 9.46C35.288 9.424 35.516 9.406 35.732 9.406C36.284 9.406 36.8 9.49 37.28 9.658C37.76 9.826 38.18 10.09 38.54 10.45C38.9 10.81 39.182 11.278 39.386 11.854C39.59 12.43 39.692 13.126 39.692 13.942V14.806C39.692 15.634 39.542 16.342 39.242 16.93C38.954 17.506 38.576 17.98 38.108 18.352C37.64 18.724 37.112 18.994 36.524 19.162C35.936 19.33 35.342 19.414 34.742 19.414ZM33.212 14.734C33.212 15.034 33.254 15.292 33.338 15.508C33.434 15.712 33.554 15.88 33.698 16.012C33.842 16.144 34.004 16.24 34.184 16.3C34.364 16.36 34.544 16.39 34.724 16.39C34.904 16.39 35.084 16.36 35.264 16.3C35.444 16.24 35.606 16.144 35.75 16.012C35.894 15.88 36.008 15.712 36.092 15.508C36.188 15.292 36.236 15.034 36.236 14.734V14.014C36.236 13.714 36.188 13.462 36.092 13.258C36.008 13.042 35.894 12.868 35.75 12.736C35.606 12.604 35.444 12.508 35.264 12.448C35.084 12.388 34.904 12.358 34.724 12.358C34.544 12.358 34.364 12.388 34.184 12.448C34.004 12.508 33.842 12.598 33.698 12.718C33.554 12.826 33.434 12.97 33.338 13.15C33.254 13.33 33.212 13.54 33.212 13.78V14.734ZM41.075 17.56C41.075 16.996 41.243 16.552 41.579 16.228C41.915 15.904 42.389 15.742 43.001 15.742C43.613 15.742 44.087 15.91 44.423 16.246C44.759 16.57 44.927 17.008 44.927 17.56C44.927 18.112 44.759 18.556 44.423 18.892C44.087 19.216 43.613 19.378 43.001 19.378C42.389 19.378 41.915 19.216 41.579 18.892C41.243 18.568 41.075 18.124 41.075 17.56ZM56.1229 14.572C56.1229 15.34 55.9849 16.024 55.7089 16.624C55.4449 17.224 55.0789 17.734 54.6109 18.154C54.1549 18.562 53.6149 18.874 52.9909 19.09C52.3789 19.306 51.7309 19.414 51.0469 19.414C50.6509 19.414 50.2429 19.384 49.8229 19.324C49.4149 19.276 49.0189 19.192 48.6349 19.072C48.2629 18.952 47.9209 18.79 47.6089 18.586C47.2969 18.382 47.0329 18.136 46.8169 17.848C46.5769 17.512 46.4689 17.134 46.4929 16.714C46.5289 16.294 46.7029 15.946 47.0149 15.67C47.2669 15.442 47.5549 15.316 47.8789 15.292C48.2029 15.268 48.5029 15.292 48.7789 15.364C48.9469 15.412 49.0969 15.49 49.2289 15.598C49.3729 15.706 49.4929 15.79 49.5889 15.85C49.7929 15.982 50.0029 16.066 50.2189 16.102C50.4469 16.126 50.6989 16.138 50.9749 16.138C51.4309 16.138 51.8149 15.982 52.1269 15.67C52.4389 15.358 52.5949 14.956 52.5949 14.464C52.5949 14.2 52.5349 13.972 52.4149 13.78C52.3069 13.576 52.1509 13.408 51.9469 13.276C51.7549 13.132 51.5269 13.024 51.2629 12.952C51.0109 12.88 50.7349 12.844 50.4349 12.844H49.5709C49.3069 12.844 49.0609 12.748 48.8329 12.556C48.6169 12.364 48.4789 12.142 48.4189 11.89C48.3349 11.566 48.3349 11.266 48.4189 10.99C48.5029 10.702 48.7009 10.42 49.0129 10.144L51.7849 7.66H48.2389C47.9749 7.66 47.7469 7.618 47.5549 7.534C47.3749 7.438 47.2249 7.318 47.1049 7.174C46.9849 7.03 46.8949 6.874 46.8349 6.706C46.7869 6.526 46.7629 6.346 46.7629 6.166C46.7629 5.998 46.7869 5.824 46.8349 5.644C46.8949 5.464 46.9849 5.302 47.1049 5.158C47.2249 5.014 47.3749 4.894 47.5549 4.798C47.7469 4.702 47.9749 4.654 48.2389 4.654H53.8369C54.3169 4.654 54.7189 4.78 55.0429 5.032C55.3789 5.284 55.6129 5.59 55.7449 5.95C55.8889 6.31 55.9249 6.694 55.8529 7.102C55.7809 7.498 55.5949 7.846 55.2949 8.146L52.7749 10.648C53.1829 10.696 53.5849 10.822 53.9809 11.026C54.3889 11.23 54.7489 11.5 55.0609 11.836C55.3849 12.172 55.6429 12.574 55.8349 13.042C56.0269 13.498 56.1229 14.008 56.1229 14.572ZM63.4517 10.432C64.3637 10.144 65.0597 9.628 65.5397 8.884C66.0197 8.14 66.2597 7.09 66.2597 5.734V5.41C66.2597 5.122 66.3077 4.876 66.4037 4.672C66.5117 4.456 66.6497 4.282 66.8177 4.15C66.9977 4.006 67.1957 3.904 67.4117 3.844C67.6397 3.772 67.8737 3.736 68.1137 3.736C68.5817 3.748 68.9837 3.898 69.3197 4.186C69.6677 4.462 69.8417 4.87 69.8417 5.41V5.734C69.8417 6.046 69.8297 6.346 69.8057 6.634C69.7817 6.91 69.7457 7.186 69.6977 7.462C70.3217 7.534 70.8857 7.696 71.3897 7.948C71.9057 8.2 72.3437 8.56 72.7037 9.028C73.0637 9.484 73.3337 10.054 73.5137 10.738C73.6937 11.422 73.7717 12.232 73.7477 13.168H70.2917C70.3877 11.416 69.8837 10.42 68.7797 10.18C68.2517 11.116 67.5977 11.848 66.8177 12.376C66.0497 12.892 65.2517 13.204 64.4237 13.312C64.1837 13.348 63.9617 13.342 63.7577 13.294C63.5537 13.246 63.3737 13.174 63.2177 13.078C63.0617 12.97 62.9297 12.844 62.8217 12.7C62.7137 12.556 62.6417 12.406 62.6057 12.25C62.4857 11.842 62.5037 11.47 62.6597 11.134C62.8277 10.786 63.0917 10.552 63.4517 10.432ZM66.5477 20.368C66.0437 20.368 65.6237 20.32 65.2877 20.224C64.9637 20.128 64.7057 19.978 64.5137 19.774C64.3217 19.57 64.1837 19.3 64.0997 18.964C64.0277 18.628 63.9917 18.22 63.9917 17.74V15.904C63.9917 15.292 64.1717 14.842 64.5317 14.554C64.9037 14.266 65.3417 14.122 65.8457 14.122C66.3497 14.122 66.7757 14.266 67.1237 14.554C67.4717 14.842 67.6457 15.292 67.6457 15.904V17.128C67.6457 17.332 67.6757 17.458 67.7357 17.506C67.7957 17.554 67.9277 17.578 68.1317 17.578H77.9057C78.4577 17.578 78.8477 17.722 79.0757 18.01C79.3037 18.286 79.4177 18.604 79.4177 18.964C79.4177 19.336 79.2977 19.66 79.0577 19.936C78.8297 20.224 78.4457 20.368 77.9057 20.368H66.5477ZM75.3677 8.74H73.8557C73.4117 8.74 73.0637 8.59 72.8117 8.29C72.5717 7.978 72.4517 7.63 72.4517 7.246C72.4517 6.862 72.5657 6.52 72.7937 6.22C73.0217 5.908 73.3757 5.752 73.8557 5.752H75.3677V5.212C75.3677 4.636 75.5477 4.204 75.9077 3.916C76.2677 3.616 76.6817 3.466 77.1497 3.466C77.3777 3.466 77.5997 3.508 77.8157 3.592C78.0317 3.664 78.2237 3.772 78.3917 3.916C78.5597 4.06 78.6917 4.24 78.7877 4.456C78.8957 4.672 78.9497 4.924 78.9497 5.212V16.192H75.3677V8.74ZM82.1717 16.66C82.8677 16.576 83.5157 16.426 84.1157 16.21C84.7277 15.994 85.2497 15.67 85.6817 15.238C86.1257 14.794 86.4737 14.212 86.7257 13.492C86.9777 12.772 87.1037 11.86 87.1037 10.756V7.714C87.1037 7.582 87.0617 7.474 86.9777 7.39C86.9057 7.306 86.7977 7.264 86.6537 7.264H82.5677C82.2917 7.264 82.0577 7.216 81.8657 7.12C81.6857 7.024 81.5297 6.904 81.3977 6.76C81.2777 6.604 81.1877 6.436 81.1277 6.256C81.0797 6.064 81.0557 5.878 81.0557 5.698C81.0557 5.518 81.0797 5.338 81.1277 5.158C81.1877 4.966 81.2777 4.798 81.3977 4.654C81.5177 4.51 81.6737 4.39 81.8657 4.294C82.0577 4.198 82.2917 4.15 82.5677 4.15H87.8597C88.8797 4.15 89.6057 4.378 90.0377 4.834C90.4697 5.29 90.6857 5.938 90.6857 6.778V9.874H93.4217V5.212C93.4217 4.636 93.6017 4.204 93.9617 3.916C94.3217 3.616 94.7357 3.466 95.2037 3.466C95.4317 3.466 95.6537 3.508 95.8697 3.592C96.0857 3.664 96.2777 3.772 96.4457 3.916C96.6137 4.06 96.7457 4.24 96.8417 4.456C96.9497 4.672 97.0037 4.924 97.0037 5.212V20.368H93.4217V12.934H90.5237C90.3437 14.11 90.0137 15.112 89.5337 15.94C89.0657 16.756 88.4837 17.428 87.7877 17.956C87.0917 18.484 86.2997 18.88 85.4117 19.144C84.5237 19.42 83.5757 19.588 82.5677 19.648C82.3517 19.66 82.1357 19.636 81.9197 19.576C81.7157 19.516 81.5297 19.42 81.3617 19.288C81.2057 19.156 81.0797 18.994 80.9837 18.802C80.8877 18.598 80.8397 18.364 80.8397 18.1C80.8397 17.716 80.9477 17.398 81.1637 17.146C81.3797 16.882 81.7157 16.72 82.1717 16.66ZM106.783 11.116V9.568C106.783 8.92 106.945 8.452 107.269 8.164C107.605 7.876 108.061 7.732 108.637 7.732C109.201 7.732 109.645 7.882 109.969 8.182C110.293 8.47 110.455 8.932 110.455 9.568V11.116H113.659V9.568C113.659 8.92 113.821 8.452 114.145 8.164C114.481 7.876 114.937 7.732 115.513 7.732C116.077 7.732 116.521 7.882 116.845 8.182C117.169 8.47 117.331 8.932 117.331 9.568V11.116H118.555C119.107 11.116 119.497 11.266 119.725 11.566C119.953 11.866 120.067 12.196 120.067 12.556C120.067 12.928 119.947 13.264 119.707 13.564C119.479 13.852 119.095 13.996 118.555 13.996H113.893V17.092H118.969C119.245 17.092 119.479 17.134 119.671 17.218C119.863 17.302 120.019 17.416 120.139 17.56C120.259 17.692 120.343 17.848 120.391 18.028C120.451 18.196 120.481 18.37 120.481 18.55C120.481 18.922 120.361 19.258 120.121 19.558C119.893 19.858 119.509 20.008 118.969 20.008H105.145C104.605 20.008 104.215 19.858 103.975 19.558C103.747 19.258 103.633 18.922 103.633 18.55C103.633 18.37 103.657 18.196 103.705 18.028C103.765 17.848 103.855 17.692 103.975 17.56C104.095 17.416 104.251 17.302 104.443 17.218C104.635 17.134 104.869 17.092 105.145 17.092H110.221V13.996H105.559C105.019 13.996 104.629 13.852 104.389 13.564C104.161 13.264 104.047 12.928 104.047 12.556C104.047 12.196 104.161 11.866 104.389 11.566C104.617 11.266 105.007 11.116 105.559 11.116H106.783ZM118.339 4.06C118.615 4.06 118.849 4.108 119.041 4.204C119.233 4.288 119.389 4.402 119.509 4.546C119.629 4.69 119.713 4.852 119.761 5.032C119.821 5.212 119.851 5.392 119.851 5.572C119.851 5.752 119.821 5.932 119.761 6.112C119.713 6.292 119.623 6.454 119.491 6.598C119.371 6.742 119.215 6.862 119.023 6.958C118.831 7.042 118.603 7.084 118.339 7.084H105.775C105.499 7.084 105.265 7.042 105.073 6.958C104.893 6.862 104.737 6.742 104.605 6.598C104.485 6.454 104.395 6.292 104.335 6.112C104.287 5.932 104.263 5.752 104.263 5.572C104.263 5.392 104.287 5.212 104.335 5.032C104.395 4.852 104.485 4.69 104.605 4.546C104.725 4.402 104.881 4.288 105.073 4.204C105.265 4.108 105.499 4.06 105.775 4.06H118.339ZM123.145 11.314C124.777 11.35 125.929 10.918 126.601 10.018C126.241 10.15 125.887 10.216 125.539 10.216L123.145 10.234C122.917 10.234 122.719 10.198 122.551 10.126C122.395 10.042 122.263 9.94 122.155 9.82C122.059 9.7 121.987 9.568 121.939 9.424C121.891 9.268 121.867 9.112 121.867 8.956C121.867 8.8 121.891 8.65 121.939 8.506C121.987 8.35 122.059 8.212 122.155 8.092C122.263 7.96 122.395 7.858 122.551 7.786C122.719 7.702 122.917 7.66 123.145 7.66H127.231V7.084C127.231 6.856 127.111 6.742 126.871 6.742H123.307C123.079 6.742 122.881 6.7 122.713 6.616C122.557 6.532 122.425 6.424 122.317 6.292C122.221 6.148 122.149 5.998 122.101 5.842C122.053 5.674 122.029 5.512 122.029 5.356C122.029 5.2 122.053 5.044 122.101 4.888C122.149 4.732 122.221 4.594 122.317 4.474C122.425 4.342 122.557 4.234 122.713 4.15C122.881 4.066 123.079 4.024 123.307 4.024H127.861C128.749 4.024 129.355 4.21 129.679 4.582C130.003 4.942 130.165 5.488 130.165 6.22V7.372H131.263V4.996C131.263 4.492 131.413 4.114 131.713 3.862C132.025 3.598 132.391 3.466 132.811 3.466C133.219 3.466 133.579 3.598 133.891 3.862C134.203 4.114 134.359 4.492 134.359 4.996V13.492H131.263V10.198H129.787C129.571 10.846 129.259 11.41 128.851 11.89C128.455 12.358 127.993 12.754 127.465 13.078C126.937 13.39 126.349 13.624 125.701 13.78C125.065 13.936 124.387 14.014 123.667 14.014C123.571 14.014 123.469 14.014 123.361 14.014C123.253 14.014 123.151 14.002 123.055 13.978C122.659 13.918 122.341 13.768 122.101 13.528C121.861 13.288 121.753 12.958 121.777 12.538C121.801 12.166 121.933 11.866 122.173 11.638C122.413 11.41 122.737 11.302 123.145 11.314ZM132.415 15.508C133.111 15.484 133.813 15.556 134.521 15.724C135.229 15.88 135.883 16.15 136.483 16.534C137.083 16.918 137.593 17.428 138.013 18.064C138.433 18.688 138.709 19.456 138.841 20.368H135.151C135.043 19.984 134.863 19.642 134.611 19.342C134.359 19.042 134.053 18.796 133.693 18.604C133.333 18.4 132.931 18.262 132.487 18.19C132.043 18.106 131.581 18.094 131.101 18.154C130.657 18.574 130.141 18.946 129.553 19.27C128.965 19.594 128.347 19.858 127.699 20.062C127.051 20.266 126.403 20.41 125.755 20.494C125.119 20.578 124.525 20.59 123.973 20.53C123.541 20.482 123.181 20.308 122.893 20.008C122.605 19.708 122.473 19.33 122.497 18.874C122.521 18.43 122.677 18.094 122.965 17.866C123.265 17.626 123.625 17.518 124.045 17.542C124.453 17.566 124.891 17.542 125.359 17.47C125.827 17.386 126.283 17.254 126.727 17.074C127.171 16.894 127.573 16.66 127.933 16.372C128.293 16.084 128.563 15.736 128.743 15.328C128.995 14.752 129.283 14.362 129.607 14.158C129.931 13.942 130.327 13.846 130.795 13.87C131.263 13.894 131.647 14.032 131.947 14.284C132.259 14.524 132.415 14.914 132.415 15.454V15.508ZM135.133 4.996C135.133 4.492 135.289 4.114 135.601 3.862C135.913 3.598 136.279 3.466 136.699 3.466C137.107 3.466 137.473 3.598 137.797 3.862C138.121 4.114 138.283 4.492 138.283 4.996V14.122H135.133V4.996ZM141.847 17.866C141.355 17.866 140.977 17.746 140.713 17.506C140.461 17.254 140.335 16.924 140.335 16.516C140.335 16.108 140.461 15.79 140.713 15.562C140.977 15.322 141.355 15.202 141.847 15.202H146.185V14.122H141.127C140.587 14.122 140.203 13.984 139.975 13.708C139.747 13.42 139.633 13.096 139.633 12.736C139.633 12.376 139.747 12.052 139.975 11.764C140.203 11.476 140.587 11.332 141.127 11.332H154.987C155.527 11.332 155.911 11.476 156.139 11.764C156.367 12.052 156.481 12.376 156.481 12.736C156.481 13.096 156.367 13.42 156.139 13.708C155.911 13.984 155.527 14.122 154.987 14.122H149.857V15.202H153.151C153.691 15.202 154.129 15.244 154.465 15.328C154.801 15.4 155.059 15.538 155.239 15.742C155.431 15.934 155.557 16.204 155.617 16.552C155.689 16.888 155.725 17.314 155.725 17.83V20.368H152.125V18.262C152.125 17.998 151.993 17.866 151.729 17.866H141.847ZM142.243 3.484C142.627 3.484 142.987 3.586 143.323 3.79C143.671 3.994 143.893 4.312 143.989 4.744H152.107C152.191 4.288 152.401 3.964 152.737 3.772C153.085 3.58 153.469 3.484 153.889 3.484C154.117 3.484 154.339 3.514 154.555 3.574C154.783 3.634 154.981 3.73 155.149 3.862C155.317 3.994 155.455 4.162 155.563 4.366C155.671 4.57 155.725 4.816 155.725 5.104V10.378H142.963C142.423 10.378 141.985 10.336 141.649 10.252C141.313 10.156 141.049 10.006 140.857 9.802C140.677 9.586 140.551 9.304 140.479 8.956C140.419 8.608 140.389 8.17 140.389 7.642V5.104C140.389 4.816 140.437 4.57 140.533 4.366C140.641 4.15 140.779 3.982 140.947 3.862C141.127 3.73 141.325 3.634 141.541 3.574C141.769 3.514 142.003 3.484 142.243 3.484ZM152.089 8.056V6.976H144.025V7.498C144.025 7.678 144.061 7.816 144.133 7.912C144.217 8.008 144.367 8.056 144.583 8.056H152.089Z" fill="black"/>
<path d="M18.7142 1.83551L5.30927 1.92508C4.3439 1.93154 3.56615 2.71975 3.5726 3.68513L3.57649 4.26772C3.58294 5.23309 4.37115 6.01084 5.33653 6.00439L18.742 5.91482C19.7074 5.90837 20.4956 6.68612 20.5021 7.65149L20.4943 6.48572C20.4878 5.52034 19.6996 4.74259 18.7342 4.74904L5.32874 4.83862C5.00715 4.84077 4.74441 4.58152 4.74226 4.25993L4.73837 3.67734C4.73622 3.35575 4.99547 3.09301 5.31706 3.09086L18.7226 3.00128C19.6885 2.99483 20.4762 3.77258 20.4826 4.73796L20.4748 3.57219C20.4684 2.60621 19.6796 1.82906 18.7142 1.83551Z" fill="#222222"/>
<path d="M18.7415 5.91541L5.33658 6.00499C4.3712 6.01144 3.58299 5.23369 3.57654 4.26831L3.6014 7.98943C3.61879 7.98691 3.63433 7.97901 3.65293 7.97888L4.76711 7.97144C5.0155 7.96978 5.21845 8.17003 5.22011 8.41842C5.22177 8.66681 5.02152 8.86976 4.77312 8.87142L3.65895 8.87886C3.64095 8.87898 3.62529 8.87069 3.60728 8.86901L3.62722 11.8533C3.64461 11.8508 3.66015 11.8429 3.67875 11.8428L4.79293 11.8354C5.04132 11.8337 5.24427 12.0339 5.24593 12.2823C5.24758 12.5307 5.04734 12.7337 4.79894 12.7353L3.68477 12.7428C3.66677 12.7429 3.65111 12.7346 3.6331 12.7329L3.65304 15.7167C3.67042 15.7141 3.68597 15.7062 3.70457 15.7061L4.81874 15.6987C5.06714 15.697 5.27008 15.8973 5.27174 16.1456C5.2734 16.394 5.07315 16.597 4.82476 16.5986L3.71058 16.6061C3.69258 16.6062 3.67693 16.5979 3.65892 16.5962L3.67885 19.58C3.69624 19.5774 3.71178 19.5695 3.73038 19.5694L4.84456 19.562C5.09295 19.5603 5.2959 19.7606 5.29756 20.009C5.29922 20.2574 5.09897 20.4603 4.85057 20.462L3.7364 20.4694C3.7184 20.4695 3.70274 20.4612 3.68473 20.4595L3.6856 20.5891C3.69205 21.5545 4.48026 22.3323 5.44564 22.3258L18.8511 22.2362C19.8165 22.2298 20.5943 21.4416 20.5878 20.4762L20.5021 7.65209C20.4957 6.68611 19.7069 5.90896 18.7415 5.91541Z" fill="#383838"/>
<path d="M18.722 3.00113L5.31709 3.0907C4.9955 3.09285 4.73625 3.35559 4.73839 3.67718L4.74229 4.25977C4.74444 4.58196 5.00717 4.84061 5.32877 4.83846L18.7343 4.74888C19.7002 4.74243 20.4879 5.52018 20.4943 6.48556L20.4826 4.7372C20.4762 3.77182 19.688 2.99407 18.7226 3.00052L18.722 3.00113Z" fill="#E5E8EB"/>
<path d="M3.20538 8.43119C3.20384 8.20079 3.37842 8.01722 3.60083 7.98874L3.60069 7.96774C3.20511 7.94218 2.88677 7.6227 2.88408 7.22011C2.88139 6.81752 3.19543 6.49321 3.59064 6.46297L3.58459 5.55759C2.69199 5.59176 1.97809 6.32674 1.9841 7.22612C1.99011 8.1255 2.71377 8.85088 3.60674 8.87312L3.60671 8.86772C3.38333 8.84281 3.20692 8.66158 3.20538 8.43119Z" fill="#65778E"/>
<path d="M3.23114 12.2951C3.2296 12.0647 3.40418 11.8811 3.62659 11.8526L3.62645 11.8316C3.23087 11.8061 2.91253 11.486 2.90984 11.0834C2.90715 10.6808 3.22119 10.3565 3.61639 10.3263L3.61034 9.42087C2.71775 9.45504 2.00385 10.19 2.00986 11.0894C2.01587 11.9888 2.73953 12.7148 3.6325 12.737L3.63247 12.7316C3.40909 12.7067 3.23268 12.5255 3.23114 12.2951Z" fill="#65778E"/>
<path d="M3.25702 16.1579C3.25548 15.9275 3.43006 15.7439 3.65247 15.7154L3.65233 15.6944C3.25675 15.6689 2.93841 15.3488 2.93572 14.9462C2.93303 14.5436 3.24707 14.2193 3.64227 14.189L3.63622 13.2837C2.74363 13.3178 2.02973 14.0528 2.03574 14.9522C2.04175 15.8516 2.76541 16.5776 3.65838 16.5998L3.65834 16.5944C3.43497 16.5695 3.25856 16.3883 3.25702 16.1579Z" fill="#65778E"/>
<path d="M3.28278 20.0211C3.28124 19.7908 3.45581 19.6072 3.67823 19.5787L3.67809 19.5577C3.28251 19.5321 2.96416 19.2121 2.96147 18.8095C2.95878 18.4069 3.27282 18.0826 3.66803 18.0523L3.66198 17.1469C2.76939 17.1811 2.05548 17.9161 2.06149 18.8155C2.0675 19.7149 2.79117 20.4408 3.68414 20.4631L3.6841 20.4577C3.46073 20.4328 3.28432 20.2515 3.28278 20.0211Z" fill="#65778E"/>
<path d="M3.28279 20.021C3.28433 20.2514 3.46135 20.4326 3.68412 20.4582C3.70154 20.4604 3.71719 20.4681 3.73579 20.468L4.84996 20.4606C5.09836 20.4589 5.29861 20.256 5.29695 20.0076C5.29529 19.7592 5.09234 19.5589 4.84395 19.5606L3.72978 19.568C3.71178 19.5682 3.69623 19.5767 3.67824 19.5786C3.45523 19.6065 3.28125 19.7906 3.28279 20.021Z" fill="#65778E"/>
<path d="M3.25704 16.1578C3.25857 16.3881 3.43559 16.5694 3.65837 16.5949C3.67578 16.5972 3.69143 16.6049 3.71003 16.6047L4.82421 16.5973C5.0726 16.5956 5.27285 16.3927 5.27119 16.1443C5.26953 15.8959 5.06659 15.6957 4.81819 15.6973L3.70402 15.7048C3.68602 15.7049 3.67048 15.7134 3.65249 15.7153C3.42947 15.7432 3.2555 15.9274 3.25704 16.1578Z" fill="#65778E"/>
<path d="M3.23116 12.2952C3.2327 12.5256 3.40971 12.7068 3.63249 12.7323C3.6499 12.7346 3.66555 12.7423 3.68415 12.7422L4.79833 12.7347C5.04672 12.7331 5.24697 12.5301 5.24531 12.2817C5.24365 12.0334 5.04071 11.8331 4.79231 11.8348L3.67814 11.8422C3.66014 11.8423 3.6446 11.8508 3.62661 11.8528C3.40359 11.8806 3.22962 12.0648 3.23116 12.2952Z" fill="#65778E"/>
<path d="M3.2054 8.43119C3.20694 8.66159 3.38395 8.84281 3.60673 8.86832C3.62415 8.8706 3.6398 8.8783 3.6584 8.87817L4.77257 8.87073C5.02097 8.86907 5.22121 8.66613 5.21955 8.41773C5.21789 8.16934 5.01495 7.96909 4.76656 7.97075L3.65238 7.97819C3.63438 7.97831 3.61884 7.98682 3.60085 7.98874C3.37783 8.01663 3.20386 8.2008 3.2054 8.43119Z" fill="#65778E"/>
<path d="M3.79688 41L3.78516 40.2266L6.67969 37.1797C7.6875 36.1133 8.16797 35.5391 8.16797 34.7539C8.16797 33.8867 7.42969 33.3125 6.48047 33.3125C5.47266 33.3125 4.82812 33.957 4.82812 34.9062H3.83203C3.82031 33.4062 4.98047 32.3984 6.51562 32.3984C8.05078 32.3984 9.15234 33.4297 9.15234 34.7539C9.15234 35.7031 8.70703 36.4414 7.20703 37.9883L5.26172 39.9922V40.0625H9.30469V41H3.79688ZM13.6172 41.1172C11.7305 41.1172 10.6523 39.5352 10.6523 36.7578C10.6523 34.0039 11.7539 32.3984 13.6172 32.3984C15.4805 32.3984 16.582 34.0039 16.582 36.7578C16.582 39.5352 15.4922 41.1172 13.6172 41.1172ZM13.6172 40.1797C14.8359 40.1797 15.5508 38.9492 15.5508 36.7578C15.5508 34.5664 14.8359 33.3125 13.6172 33.3125C12.3984 33.3125 11.6719 34.5664 11.6719 36.7578C11.6719 38.9492 12.3867 40.1797 13.6172 40.1797ZM17.9883 41L17.9766 40.2266L20.8711 37.1797C21.8789 36.1133 22.3594 35.5391 22.3594 34.7539C22.3594 33.8867 21.6211 33.3125 20.6719 33.3125C19.6641 33.3125 19.0195 33.957 19.0195 34.9062H18.0234C18.0117 33.4062 19.1719 32.3984 20.707 32.3984C22.2422 32.3984 23.3438 33.4297 23.3438 34.7539C23.3438 35.7031 22.8984 36.4414 21.3984 37.9883L19.4531 39.9922V40.0625H23.4961V41H17.9883ZM27.9844 41.1172C26.5078 41.0938 24.8906 40.2266 24.8906 37.0859C24.8906 34.0859 26.1211 32.3984 28.1133 32.3984C29.6016 32.3984 30.6445 33.3125 30.8672 34.6484H29.8242C29.625 33.8984 29.0625 33.3359 28.1133 33.3359C26.7188 33.3359 25.8867 34.5312 25.8867 36.5703H25.9922C26.4844 35.8672 27.2578 35.4453 28.1719 35.4453C29.6836 35.4453 30.9375 36.6172 30.9375 38.2578C30.9375 39.8516 29.7656 41.1289 27.9844 41.1172ZM27.9844 40.1914C29.0859 40.1914 29.9062 39.3242 29.918 38.2695C29.9062 37.2266 29.1211 36.3711 28.0078 36.3711C26.8945 36.3711 26.0391 37.2734 26.0273 38.2812C26.0273 39.2773 26.8477 40.1914 27.9844 40.1914ZM43.9336 31.5312V41.9492H43.0547V31.5312H43.9336ZM41.8242 31.7891V41.4102H40.957V36.043H39.1992V35.293H40.957V31.7891H41.8242ZM38.0859 34.5078C38.0859 36.3125 38.8945 38.1055 40.3359 38.9375L39.7734 39.6172C38.748 39.002 38.0215 37.877 37.6641 36.5469C37.2832 37.9824 36.5273 39.207 35.4844 39.8633L34.8984 39.1719C36.3516 38.3047 37.1953 36.4062 37.1953 34.5078V33.5234H35.1914V32.7617H39.9961V33.5234H38.0859V34.5078ZM48.5977 32.3984C50.0625 32.4102 51.6797 33.2891 51.6797 36.418C51.6797 39.4297 50.4492 41.1172 48.457 41.1172C46.9688 41.1172 45.9141 40.2031 45.7031 38.8555H46.7461C46.9336 39.6172 47.5078 40.1797 48.457 40.1797C49.8398 40.1797 50.6836 38.9844 50.6953 36.9219H50.5781C50.0859 37.625 49.3125 38.0469 48.4102 38.0469C46.8867 38.0469 45.6328 36.8867 45.6328 35.2461C45.6328 33.6641 46.793 32.3867 48.5977 32.3984ZM48.5977 33.3242C47.4844 33.3242 46.6523 34.1914 46.6641 35.2344C46.6641 36.2891 47.4492 37.1211 48.5625 37.1211C49.6641 37.1211 50.5312 36.207 50.5312 35.2109C50.5312 34.2383 49.7227 33.3242 48.5977 33.3242ZM61.3008 31.5312V41.9492H60.3867V31.5312H61.3008ZM52.8164 39.1719C53.707 39.166 54.7266 39.1602 55.7812 39.125V37.9883C54.5332 37.8535 53.7188 37.1445 53.7305 36.1016C53.7188 34.9297 54.7266 34.168 56.2266 34.168C57.7266 34.168 58.7461 34.9297 58.7461 36.1016C58.7461 37.1328 57.9375 37.8418 56.707 37.9766V39.0898C57.7148 39.0488 58.7344 38.9727 59.6953 38.8438L59.7656 39.5469C57.4453 39.9219 54.8906 39.957 52.957 39.957L52.8164 39.1719ZM59.4258 32.8203V33.5703H53.0391V32.8203H55.7812V31.543H56.707V32.8203H59.4258ZM56.2266 34.8828C55.2656 34.8828 54.5859 35.375 54.5859 36.1016C54.5859 36.8281 55.2656 37.2969 56.2266 37.2852C57.1992 37.2969 57.8672 36.8281 57.8672 36.1016C57.8672 35.375 57.1992 34.8828 56.2266 34.8828ZM74.7773 31.543V39.1836H73.8516V35.1875H71.707V34.4258H73.8516V31.543H74.7773ZM75.0703 40.9531V41.7266H68.0859V38.4922H69.0117V40.9531H75.0703ZM69.7617 33.6875C69.7617 35.0352 70.8047 36.3477 72.3281 36.8633L71.8477 37.6016C70.6699 37.1797 69.7617 36.3008 69.3164 35.2227C68.8652 36.4238 67.9043 37.3848 66.668 37.8477L66.1875 37.0977C67.7227 36.5586 68.8359 35.1875 68.8359 33.6875V33.1484H66.4805V32.3867H72.0938V33.1484H69.7617V33.6875ZM84.7969 32.0469V32.7969C84.7969 33.5762 84.7969 34.5078 84.5391 35.7617H86.0508V36.5117H81.7148V38.4336H84.8672V41.9492H83.9414V39.1953H77.4961V38.4336H80.8008V36.5117H76.5117V35.7617H83.6133C83.8828 34.4844 83.8828 33.5762 83.8828 32.7969H77.7188V32.0469H84.7969ZM96.3867 36.6875V37.4258H86.8828V36.6875H91.1836V35.4688H88.0898V32.0234H95.2031V32.7617H88.9922V34.7188H95.2734V35.4688H92.0742V36.6875H96.3867ZM91.6289 38.1875C93.8672 38.1875 95.2031 38.8672 95.2148 40.0625C95.2031 41.2695 93.8672 41.9375 91.6289 41.9492C89.3789 41.9375 88.0312 41.2695 88.0312 40.0625C88.0312 38.8672 89.3789 38.1875 91.6289 38.1875ZM91.6289 38.9141C89.9531 38.9141 88.957 39.3477 88.9688 40.0625C88.957 40.7891 89.9531 41.2109 91.6289 41.2109C93.2812 41.2109 94.2891 40.7891 94.2891 40.0625C94.2891 39.3477 93.2812 38.9141 91.6289 38.9141ZM100.957 34.332C100.945 36.2305 102.246 38.1523 103.781 38.8438L103.219 39.5703C102.035 38.9902 101.01 37.7656 100.512 36.2773C100.025 37.8535 99 39.166 97.7812 39.7812L97.1953 39.0078C98.7422 38.293 100.031 36.3125 100.043 34.332V32.4336H100.957V34.332ZM105.844 31.5312V41.9727H104.918V31.5312H105.844ZM111.352 34.7305C111.352 36.5 112.641 38.293 114.176 38.9609L113.66 39.6875C112.441 39.1309 111.387 37.9297 110.906 36.4883C110.414 38.0176 109.365 39.3477 108.176 39.9453L107.625 39.2188C109.113 38.5039 110.414 36.5352 110.426 34.7305V33.3711H107.965V32.6094H113.836V33.3711H111.352V34.7305ZM116.215 31.5312V41.9492H115.289V31.5312H116.215ZM122.801 38.082C124.945 38.082 126.234 38.7852 126.234 40.0039C126.234 41.2344 124.945 41.9375 122.801 41.9492C120.656 41.9375 119.344 41.2344 119.344 40.0039C119.344 38.7852 120.656 38.082 122.801 38.082ZM122.801 38.8086C121.23 38.8203 120.258 39.2539 120.27 40.0039C120.258 40.7539 121.23 41.1992 122.801 41.1992C124.383 41.1992 125.344 40.7539 125.344 40.0039C125.344 39.2539 124.383 38.8203 122.801 38.8086ZM126.141 31.5312V34.1562H127.711V34.9414H126.141V37.8008H125.227V31.5312H126.141ZM119.344 32.1875V33.7812H122.379V32.1875H123.293V36.9922H118.441V32.1875H119.344ZM119.344 36.2422H122.379V34.5078H119.344V36.2422ZM131.93 33.5C131.93 34.9531 132.984 36.3242 134.508 36.875L133.992 37.5898C132.85 37.1328 131.941 36.2246 131.496 35.0938C131.051 36.3535 130.102 37.3555 128.871 37.8477L128.379 37.0977C129.938 36.5234 131.016 35.0703 131.027 33.4648V32.1758H131.93V33.5ZM137.004 31.543V39.3477H136.078V34.7656H133.758V33.9922H136.078V31.543H137.004ZM137.238 40.9531V41.7266H130.266V38.457H131.191V40.9531H137.238ZM147.363 31.5312V41.9492H146.449V36.4883H143.965V35.7266H146.449V31.5312H147.363ZM143.988 32.668C143.988 35.6211 142.734 38.2461 139.254 39.9688L138.75 39.2305C141.574 37.8652 142.881 35.8613 143.062 33.418H139.207V32.668H143.988Z" fill="#868686"/>
</svg>
