<svg width="99" height="14" viewBox="0 0 99 14" fill="none" xmlns="http://www.w3.org/2000/svg">
<path d="M3.85003 12.404C3.38337 12.404 2.92137 12.3387 2.46403 12.208C2.0067 12.0774 1.59603 11.8674 1.23203 11.578C0.868033 11.2887 0.569367 10.92 0.336033 10.472C0.112033 10.0147 3.32519e-05 9.46403 3.32519e-05 8.82003V4.36803C3.32519e-05 3.7987 0.1027 3.2947 0.308033 2.85603C0.513367 2.40803 0.7887 2.03936 1.13403 1.75003C1.4887 1.45136 1.90403 1.22736 2.38003 1.07803C2.85603 0.919364 3.36003 0.840031 3.89203 0.840031C4.48003 0.840031 5.02603 0.905364 5.53003 1.03603C6.04337 1.15736 6.46337 1.35803 6.79003 1.63803C6.90203 1.73136 6.9907 1.84803 7.05603 1.98803C7.12137 2.12803 7.1587 2.2727 7.16803 2.42203C7.1867 2.57136 7.17737 2.72536 7.14003 2.88403C7.1027 3.03336 7.0327 3.1687 6.93003 3.29003C6.76203 3.49536 6.56137 3.62136 6.32803 3.66803C6.10403 3.7147 5.88003 3.7147 5.65603 3.66803C5.51603 3.64003 5.3947 3.6027 5.29203 3.55603C5.18937 3.50003 5.07737 3.45803 4.95603 3.43003C4.8347 3.40203 4.69937 3.3787 4.55003 3.36003C4.4007 3.33203 4.2047 3.31803 3.96203 3.31803C3.80337 3.31803 3.6447 3.34603 3.48603 3.40203C3.32737 3.4487 3.18737 3.52336 3.06603 3.62603C2.9447 3.71936 2.8467 3.8407 2.77203 3.99003C2.69737 4.13003 2.66003 4.29336 2.66003 4.48003V5.13803C2.7627 5.05403 2.8887 4.97936 3.03803 4.91403C3.1967 4.8487 3.3647 4.79736 3.54203 4.76003C3.71937 4.71336 3.90137 4.6807 4.08803 4.66203C4.2747 4.63403 4.45203 4.62003 4.62003 4.62003C5.04937 4.62003 5.4507 4.68536 5.82403 4.81603C6.19737 4.9467 6.52403 5.15203 6.80403 5.43203C7.08403 5.71203 7.30337 6.07603 7.46203 6.52403C7.6207 6.97203 7.70003 7.51336 7.70003 8.14803V8.82003C7.70003 9.46403 7.58337 10.0147 7.35003 10.472C7.12603 10.92 6.83203 11.2887 6.46803 11.578C6.10403 11.8674 5.69337 12.0774 5.23603 12.208C4.7787 12.3387 4.3167 12.404 3.85003 12.404ZM2.66003 8.76403C2.66003 8.99736 2.6927 9.19803 2.75803 9.36603C2.8327 9.5247 2.92603 9.65536 3.03803 9.75803C3.15003 9.8607 3.27603 9.93536 3.41603 9.98203C3.55603 10.0287 3.69603 10.052 3.83603 10.052C3.97603 10.052 4.11603 10.0287 4.25603 9.98203C4.39603 9.93536 4.52203 9.8607 4.63403 9.75803C4.74603 9.65536 4.8347 9.5247 4.90003 9.36603C4.9747 9.19803 5.01203 8.99736 5.01203 8.76403V8.20403C5.01203 7.9707 4.9747 7.7747 4.90003 7.61603C4.8347 7.44803 4.74603 7.3127 4.63403 7.21003C4.52203 7.10736 4.39603 7.0327 4.25603 6.98603C4.11603 6.93936 3.97603 6.91603 3.83603 6.91603C3.69603 6.91603 3.55603 6.93936 3.41603 6.98603C3.27603 7.0327 3.15003 7.1027 3.03803 7.19603C2.92603 7.28003 2.8327 7.39203 2.75803 7.53203C2.6927 7.67203 2.66003 7.83536 2.66003 8.02203V8.76403ZM8.77574 10.962C8.77574 10.5234 8.9064 10.178 9.16774 9.92603C9.42907 9.67403 9.79774 9.54803 10.2737 9.54803C10.7497 9.54803 11.1184 9.6787 11.3797 9.94003C11.6411 10.192 11.7717 10.5327 11.7717 10.962C11.7717 11.3914 11.6411 11.7367 11.3797 11.998C11.1184 12.25 10.7497 12.376 10.2737 12.376C9.79774 12.376 9.42907 12.25 9.16774 11.998C8.9064 11.746 8.77574 11.4007 8.77574 10.962ZM20.4796 8.63803C20.4796 9.23536 20.3723 9.76736 20.1576 10.234C19.9523 10.7007 19.6676 11.0974 19.3036 11.424C18.949 11.7414 18.529 11.984 18.0436 12.152C17.5676 12.32 17.0636 12.404 16.5316 12.404C16.2236 12.404 15.9063 12.3807 15.5796 12.334C15.2623 12.2967 14.9543 12.2314 14.6556 12.138C14.3663 12.0447 14.1003 11.9187 13.8576 11.76C13.615 11.6014 13.4096 11.41 13.2416 11.186C13.055 10.9247 12.971 10.6307 12.9896 10.304C13.0176 9.97736 13.153 9.7067 13.3956 9.49203C13.5916 9.3147 13.8156 9.2167 14.0676 9.19803C14.3196 9.17936 14.553 9.19803 14.7676 9.25403C14.8983 9.29136 15.015 9.35203 15.1176 9.43603C15.2296 9.52003 15.323 9.58536 15.3976 9.63203C15.5563 9.7347 15.7196 9.80003 15.8876 9.82803C16.065 9.8467 16.261 9.85603 16.4756 9.85603C16.8303 9.85603 17.129 9.7347 17.3716 9.49203C17.6143 9.24936 17.7356 8.9367 17.7356 8.55403C17.7356 8.3487 17.689 8.17136 17.5956 8.02203C17.5116 7.86336 17.3903 7.7327 17.2316 7.63003C17.0823 7.51803 16.905 7.43403 16.6996 7.37803C16.5036 7.32203 16.289 7.29403 16.0556 7.29403H15.3836C15.1783 7.29403 14.987 7.21936 14.8096 7.07003C14.6416 6.9207 14.5343 6.74803 14.4876 6.55203C14.4223 6.30003 14.4223 6.0667 14.4876 5.85203C14.553 5.62803 14.707 5.4087 14.9496 5.19403L17.1056 3.26203H14.3476C14.1423 3.26203 13.965 3.22936 13.8156 3.16403C13.6756 3.08936 13.559 2.99603 13.4656 2.88403C13.3723 2.77203 13.3023 2.6507 13.2556 2.52003C13.2183 2.38003 13.1996 2.24003 13.1996 2.10003C13.1996 1.96936 13.2183 1.83403 13.2556 1.69403C13.3023 1.55403 13.3723 1.42803 13.4656 1.31603C13.559 1.20403 13.6756 1.1107 13.8156 1.03603C13.965 0.961364 14.1423 0.924031 14.3476 0.924031H18.7016C19.075 0.924031 19.3876 1.02203 19.6396 1.21803C19.901 1.41403 20.083 1.65203 20.1856 1.93203C20.2976 2.21203 20.3256 2.5107 20.2696 2.82803C20.2136 3.13603 20.069 3.4067 19.8356 3.64003L17.8756 5.58603C18.193 5.62336 18.5056 5.72136 18.8136 5.88003C19.131 6.0387 19.411 6.2487 19.6536 6.51003C19.9056 6.77136 20.1063 7.08403 20.2556 7.44803C20.405 7.8027 20.4796 8.19936 20.4796 8.63803ZM26.1798 5.41803C26.8891 5.19403 27.4305 4.7927 27.8038 4.21403C28.1771 3.63536 28.3638 2.8187 28.3638 1.76403V1.51203C28.3638 1.28803 28.4011 1.0967 28.4758 0.93803C28.5598 0.770031 28.6671 0.634698 28.7978 0.532031C28.9378 0.420031 29.0918 0.340697 29.2598 0.29403C29.4371 0.23803 29.6191 0.210031 29.8058 0.210031C30.1698 0.219364 30.4825 0.336031 30.7438 0.560031C31.0145 0.774698 31.1498 1.09203 31.1498 1.51203V1.76403C31.1498 2.0067 31.1405 2.24003 31.1218 2.46403C31.1031 2.6787 31.0751 2.89336 31.0378 3.10803C31.5231 3.16403 31.9618 3.29003 32.3538 3.48603C32.7551 3.68203 33.0958 3.96203 33.3758 4.32603C33.6558 4.6807 33.8658 5.12403 34.0058 5.65603C34.1458 6.18803 34.2065 6.81803 34.1878 7.54603H31.4998C31.5745 6.18336 31.1825 5.4087 30.3238 5.22203C29.9131 5.95003 29.4045 6.51936 28.7978 6.93003C28.2005 7.33136 27.5798 7.57403 26.9358 7.65803C26.7491 7.68603 26.5765 7.68136 26.4178 7.64403C26.2591 7.6067 26.1191 7.5507 25.9978 7.47603C25.8765 7.39203 25.7738 7.29403 25.6898 7.18203C25.6058 7.07003 25.5498 6.95336 25.5218 6.83203C25.4285 6.5147 25.4425 6.22536 25.5638 5.96403C25.6945 5.69336 25.8998 5.51136 26.1798 5.41803ZM28.5878 13.146C28.1958 13.146 27.8691 13.1087 27.6078 13.034C27.3558 12.9594 27.1551 12.8427 27.0058 12.684C26.8565 12.5254 26.7491 12.3154 26.6838 12.054C26.6278 11.7927 26.5998 11.4754 26.5998 11.102V9.67403C26.5998 9.19803 26.7398 8.84803 27.0198 8.62403C27.3091 8.40003 27.6498 8.28803 28.0418 8.28803C28.4338 8.28803 28.7651 8.40003 29.0358 8.62403C29.3065 8.84803 29.4418 9.19803 29.4418 9.67403V10.626C29.4418 10.7847 29.4651 10.8827 29.5118 10.92C29.5585 10.9574 29.6611 10.976 29.8198 10.976H37.4218C37.8511 10.976 38.1545 11.088 38.3318 11.312C38.5091 11.5267 38.5978 11.774 38.5978 12.054C38.5978 12.3434 38.5045 12.5954 38.3178 12.81C38.1405 13.034 37.8418 13.146 37.4218 13.146H28.5878ZM35.4478 4.10203H34.2718C33.9265 4.10203 33.6558 3.98536 33.4598 3.75203C33.2731 3.50936 33.1798 3.2387 33.1798 2.94003C33.1798 2.64136 33.2685 2.37536 33.4458 2.14203C33.6231 1.89936 33.8985 1.77803 34.2718 1.77803H35.4478V1.35803C35.4478 0.910031 35.5878 0.574031 35.8678 0.35003C36.1478 0.116697 36.4698 3.0756e-05 36.8338 3.0756e-05C37.0111 3.0756e-05 37.1838 0.0326973 37.3518 0.0980303C37.5198 0.154031 37.6691 0.238031 37.7998 0.35003C37.9305 0.462031 38.0331 0.602031 38.1078 0.770031C38.1918 0.938031 38.2338 1.13403 38.2338 1.35803V9.89803H35.4478V4.10203ZM40.7398 10.262C41.2811 10.1967 41.7851 10.08 42.2518 9.91203C42.7278 9.74403 43.1338 9.49203 43.4698 9.15603C43.8151 8.8107 44.0858 8.35803 44.2818 7.79803C44.4778 7.23803 44.5758 6.5287 44.5758 5.67003V3.30403C44.5758 3.20136 44.5431 3.11736 44.4778 3.05203C44.4218 2.9867 44.3378 2.95403 44.2258 2.95403H41.0478C40.8331 2.95403 40.6511 2.9167 40.5018 2.84203C40.3618 2.76736 40.2405 2.67403 40.1378 2.56203C40.0445 2.4407 39.9745 2.31003 39.9278 2.17003C39.8905 2.0207 39.8718 1.87603 39.8718 1.73603C39.8718 1.59603 39.8905 1.45603 39.9278 1.31603C39.9745 1.1667 40.0445 1.03603 40.1378 0.924031C40.2311 0.812031 40.3525 0.718698 40.5018 0.644031C40.6511 0.569364 40.8331 0.532031 41.0478 0.532031H45.1638C45.9571 0.532031 46.5218 0.709364 46.8578 1.06403C47.1938 1.4187 47.3618 1.9227 47.3618 2.57603V4.98403H49.4898V1.35803C49.4898 0.910031 49.6298 0.574031 49.9098 0.35003C50.1898 0.116697 50.5118 3.0756e-05 50.8758 3.0756e-05C51.0531 3.0756e-05 51.2258 0.0326973 51.3938 0.0980303C51.5618 0.154031 51.7111 0.238031 51.8418 0.35003C51.9725 0.462031 52.0751 0.602031 52.1498 0.770031C52.2338 0.938031 52.2758 1.13403 52.2758 1.35803V13.146H49.4898V7.36403H47.2358C47.0958 8.2787 46.8391 9.05803 46.4658 9.70203C46.1018 10.3367 45.6491 10.8594 45.1078 11.27C44.5665 11.6807 43.9505 11.9887 43.2598 12.194C42.5691 12.4087 41.8318 12.5394 41.0478 12.586C40.8798 12.5954 40.7118 12.5767 40.5438 12.53C40.3851 12.4834 40.2405 12.4087 40.1098 12.306C39.9885 12.2034 39.8905 12.0774 39.8158 11.928C39.7411 11.7694 39.7038 11.5874 39.7038 11.382C39.7038 11.0834 39.7878 10.836 39.9558 10.64C40.1238 10.4347 40.3851 10.3087 40.7398 10.262ZM59.8816 5.95003V4.74603C59.8816 4.24203 60.0076 3.87803 60.2596 3.65403C60.521 3.43003 60.8756 3.31803 61.3236 3.31803C61.7623 3.31803 62.1076 3.4347 62.3596 3.66803C62.6116 3.89203 62.7376 4.25136 62.7376 4.74603V5.95003H65.2296V4.74603C65.2296 4.24203 65.3556 3.87803 65.6076 3.65403C65.869 3.43003 66.2236 3.31803 66.6716 3.31803C67.1103 3.31803 67.4556 3.4347 67.7076 3.66803C67.9596 3.89203 68.0856 4.25136 68.0856 4.74603V5.95003H69.0376C69.467 5.95003 69.7703 6.0667 69.9476 6.30003C70.125 6.53336 70.2136 6.79003 70.2136 7.07003C70.2136 7.35936 70.1203 7.6207 69.9336 7.85403C69.7563 8.07803 69.4576 8.19003 69.0376 8.19003H65.4116V10.598H69.3596C69.5743 10.598 69.7563 10.6307 69.9056 10.696C70.055 10.7614 70.1763 10.85 70.2696 10.962C70.363 11.0647 70.4283 11.186 70.4656 11.326C70.5123 11.4567 70.5356 11.592 70.5356 11.732C70.5356 12.0214 70.4423 12.2827 70.2556 12.516C70.0783 12.7494 69.7796 12.866 69.3596 12.866H58.6076C58.1876 12.866 57.8843 12.7494 57.6976 12.516C57.5203 12.2827 57.4316 12.0214 57.4316 11.732C57.4316 11.592 57.4503 11.4567 57.4876 11.326C57.5343 11.186 57.6043 11.0647 57.6976 10.962C57.791 10.85 57.9123 10.7614 58.0616 10.696C58.211 10.6307 58.393 10.598 58.6076 10.598H62.5556V8.19003H58.9296C58.5096 8.19003 58.2063 8.07803 58.0196 7.85403C57.8423 7.6207 57.7536 7.35936 57.7536 7.07003C57.7536 6.79003 57.8423 6.53336 58.0196 6.30003C58.197 6.0667 58.5003 5.95003 58.9296 5.95003H59.8816ZM68.8696 0.462031C69.0843 0.462031 69.2663 0.499364 69.4156 0.574031C69.565 0.639364 69.6863 0.728031 69.7796 0.840031C69.873 0.952031 69.9383 1.07803 69.9756 1.21803C70.0223 1.35803 70.0456 1.49803 70.0456 1.63803C70.0456 1.77803 70.0223 1.91803 69.9756 2.05803C69.9383 2.19803 69.8683 2.32403 69.7656 2.43603C69.6723 2.54803 69.551 2.64136 69.4016 2.71603C69.2523 2.78136 69.075 2.81403 68.8696 2.81403H59.0976C58.883 2.81403 58.701 2.78136 58.5516 2.71603C58.4116 2.64136 58.2903 2.54803 58.1876 2.43603C58.0943 2.32403 58.0243 2.19803 57.9776 2.05803C57.9403 1.91803 57.9216 1.77803 57.9216 1.63803C57.9216 1.49803 57.9403 1.35803 57.9776 1.21803C58.0243 1.07803 58.0943 0.952031 58.1876 0.840031C58.281 0.728031 58.4023 0.639364 58.5516 0.574031C58.701 0.499364 58.883 0.462031 59.0976 0.462031H68.8696ZM72.6076 6.10403C73.877 6.13203 74.773 5.79603 75.2956 5.09603C75.0156 5.1987 74.7403 5.25003 74.4696 5.25003L72.6076 5.26403C72.4303 5.26403 72.2763 5.23603 72.1456 5.18003C72.0243 5.1147 71.9216 5.03536 71.8376 4.94203C71.763 4.8487 71.707 4.74603 71.6696 4.63403C71.6323 4.5127 71.6136 4.39136 71.6136 4.27003C71.6136 4.1487 71.6323 4.03203 71.6696 3.92003C71.707 3.7987 71.763 3.69136 71.8376 3.59803C71.9216 3.49536 72.0243 3.41603 72.1456 3.36003C72.2763 3.2947 72.4303 3.26203 72.6076 3.26203H75.7856V2.81403C75.7856 2.6367 75.6923 2.54803 75.5056 2.54803H72.7336C72.5563 2.54803 72.4023 2.51536 72.2716 2.45003C72.1503 2.3847 72.0476 2.3007 71.9636 2.19803C71.889 2.08603 71.833 1.96936 71.7956 1.84803C71.7583 1.71736 71.7396 1.59136 71.7396 1.47003C71.7396 1.3487 71.7583 1.22736 71.7956 1.10603C71.833 0.984697 71.889 0.877364 71.9636 0.784031C72.0476 0.681364 72.1503 0.597364 72.2716 0.532031C72.4023 0.466698 72.5563 0.434031 72.7336 0.434031H76.2756C76.9663 0.434031 77.4376 0.578697 77.6896 0.86803C77.9416 1.14803 78.0676 1.5727 78.0676 2.14203V3.03803H78.9216V1.19003C78.9216 0.79803 79.0383 0.504031 79.2716 0.308031C79.5143 0.102697 79.799 3.0756e-05 80.1256 3.0756e-05C80.443 3.0756e-05 80.723 0.102697 80.9656 0.308031C81.2083 0.504031 81.3296 0.79803 81.3296 1.19003V7.79803H78.9216V5.23603H77.7736C77.6056 5.74003 77.363 6.1787 77.0456 6.55203C76.7376 6.91603 76.3783 7.22403 75.9676 7.47603C75.557 7.7187 75.0996 7.9007 74.5956 8.02203C74.101 8.14336 73.5736 8.20403 73.0136 8.20403C72.939 8.20403 72.8596 8.20403 72.7756 8.20403C72.6916 8.20403 72.6123 8.1947 72.5376 8.17603C72.2296 8.12936 71.9823 8.0127 71.7956 7.82603C71.609 7.63936 71.525 7.3827 71.5436 7.05603C71.5623 6.7667 71.665 6.53336 71.8516 6.35603C72.0383 6.1787 72.2903 6.0947 72.6076 6.10403ZM79.8176 9.36603C80.359 9.34736 80.905 9.40336 81.4556 9.53403C82.0063 9.65536 82.515 9.86536 82.9816 10.164C83.4483 10.4627 83.845 10.8594 84.1716 11.354C84.4983 11.8394 84.713 12.4367 84.8156 13.146H81.9456C81.8616 12.8474 81.7216 12.5814 81.5256 12.348C81.3296 12.1147 81.0916 11.9234 80.8116 11.774C80.5316 11.6154 80.219 11.508 79.8736 11.452C79.5283 11.3867 79.169 11.3774 78.7956 11.424C78.4503 11.7507 78.049 12.04 77.5916 12.292C77.1343 12.544 76.6536 12.7494 76.1496 12.908C75.6456 13.0667 75.1416 13.1787 74.6376 13.244C74.143 13.3094 73.681 13.3187 73.2516 13.272C72.9156 13.2347 72.6356 13.0994 72.4116 12.866C72.1876 12.6327 72.085 12.3387 72.1036 11.984C72.1223 11.6387 72.2436 11.3774 72.4676 11.2C72.701 11.0134 72.981 10.9294 73.3076 10.948C73.625 10.9667 73.9656 10.948 74.3296 10.892C74.6936 10.8267 75.0483 10.724 75.3936 10.584C75.739 10.444 76.0516 10.262 76.3316 10.038C76.6116 9.81403 76.8216 9.54336 76.9616 9.22603C77.1576 8.77803 77.3816 8.4747 77.6336 8.31603C77.8856 8.14803 78.1936 8.07336 78.5576 8.09203C78.9216 8.1107 79.2203 8.21803 79.4536 8.41403C79.6963 8.6007 79.8176 8.90403 79.8176 9.32403V9.36603ZM81.9316 1.19003C81.9316 0.79803 82.053 0.504031 82.2956 0.308031C82.5383 0.102697 82.823 3.0756e-05 83.1496 3.0756e-05C83.467 3.0756e-05 83.7516 0.102697 84.0036 0.308031C84.2556 0.504031 84.3816 0.79803 84.3816 1.19003V8.28803H81.9316V1.19003ZM87.1536 11.2C86.771 11.2 86.477 11.1067 86.2716 10.92C86.0756 10.724 85.9776 10.4674 85.9776 10.15C85.9776 9.8327 86.0756 9.58536 86.2716 9.40803C86.477 9.22136 86.771 9.12803 87.1536 9.12803H90.5276V8.28803H86.5936C86.1736 8.28803 85.875 8.1807 85.6976 7.96603C85.5203 7.74203 85.4316 7.49003 85.4316 7.21003C85.4316 6.93003 85.5203 6.67803 85.6976 6.45403C85.875 6.23003 86.1736 6.11803 86.5936 6.11803H97.3736C97.7936 6.11803 98.0923 6.23003 98.2696 6.45403C98.447 6.67803 98.5356 6.93003 98.5356 7.21003C98.5356 7.49003 98.447 7.74203 98.2696 7.96603C98.0923 8.1807 97.7936 8.28803 97.3736 8.28803H93.3836V9.12803H95.9456C96.3656 9.12803 96.7063 9.1607 96.9676 9.22603C97.229 9.28203 97.4296 9.38936 97.5696 9.54803C97.719 9.69736 97.817 9.90736 97.8636 10.178C97.9196 10.4394 97.9476 10.7707 97.9476 11.172V13.146H95.1476V11.508C95.1476 11.3027 95.045 11.2 94.8396 11.2H87.1536ZM87.4616 0.0140306C87.7603 0.0140306 88.0403 0.093364 88.3016 0.252031C88.5723 0.410697 88.745 0.65803 88.8196 0.99403H95.1336C95.199 0.639364 95.3623 0.387364 95.6236 0.238031C95.8943 0.0886974 96.193 0.0140306 96.5196 0.0140306C96.697 0.0140306 96.8696 0.0373639 97.0376 0.0840305C97.215 0.130697 97.369 0.205364 97.4996 0.308031C97.6303 0.410697 97.7376 0.541364 97.8216 0.700031C97.9056 0.858697 97.9476 1.05003 97.9476 1.27403V5.37603H88.0216C87.6016 5.37603 87.261 5.34336 86.9996 5.27803C86.7383 5.20336 86.533 5.0867 86.3836 4.92803C86.2436 4.76003 86.1456 4.5407 86.0896 4.27003C86.043 3.99936 86.0196 3.6587 86.0196 3.24803V1.27403C86.0196 1.05003 86.057 0.858697 86.1316 0.700031C86.2156 0.532031 86.323 0.401364 86.4536 0.308031C86.5936 0.205364 86.7476 0.130697 86.9156 0.0840305C87.093 0.0373639 87.275 0.0140306 87.4616 0.0140306ZM95.1196 3.57003V2.73003H88.8476V3.13603C88.8476 3.27603 88.8756 3.38336 88.9316 3.45803C88.997 3.5327 89.1136 3.57003 89.2816 3.57003H95.1196Z" fill="white"/>
</svg>
